<mxfile host="app.diagrams.net" modified="2023-04-04T18:16:11.798Z" agent="Mozilla/5.0 (Macintosh; Intel Mac OS X 10_15_7) AppleWebKit/605.1.15 (KHTML, like Gecko) Version/15.6 Safari/605.1.15" etag="rReCaewAY_BmE3Oi5x9b" version="21.1.1" type="device">
  <diagram name="Page-1" id="dyZ6oSbw0hrGoKjQKrQ0">
    <mxGraphModel dx="1260" dy="867" grid="1" gridSize="10" guides="1" tooltips="1" connect="1" arrows="1" fold="1" page="1" pageScale="1" pageWidth="827" pageHeight="1169" math="0" shadow="0">
      <root>
        <mxCell id="0" />
        <mxCell id="1" parent="0" />
        <mxCell id="gMB_zFFxVmB4Xs2BB8ZC-11" value="&lt;h1 style=&quot;border-color: var(--border-color);&quot;&gt;&lt;font style=&quot;border-color: var(--border-color);&quot; face=&quot;Comic Sans MS&quot;&gt;Increase in Centrality&amp;nbsp;&lt;/font&gt;&lt;/h1&gt;" style="rounded=1;whiteSpace=wrap;html=1;fillStyle=auto;fillColor=#9AC7BF;strokeColor=#314354;strokeWidth=4;" vertex="1" parent="1">
          <mxGeometry x="160" y="280" width="920" height="39" as="geometry" />
        </mxCell>
        <mxCell id="gMB_zFFxVmB4Xs2BB8ZC-12" value="&lt;h1&gt;&lt;font face=&quot;Comic Sans MS&quot;&gt;Change in Time&amp;nbsp;&lt;/font&gt;&lt;/h1&gt;" style="rounded=1;whiteSpace=wrap;html=1;strokeWidth=4;fillColor=#9AC7BF;strokeColor=#314354;" vertex="1" parent="1">
          <mxGeometry x="160" y="600" width="920" height="40" as="geometry" />
        </mxCell>
        <mxCell id="gMB_zFFxVmB4Xs2BB8ZC-4" value="&lt;h1&gt;&lt;font color=&quot;#ffffff&quot; face=&quot;Comic Sans MS&quot;&gt;Team-based Governance&lt;/font&gt;&lt;/h1&gt;" style="rounded=1;whiteSpace=wrap;html=1;fillColor=#EEA47FFF;strokeColor=#B85450;strokeWidth=2;arcSize=24;" vertex="1" parent="1">
          <mxGeometry x="164" y="380" width="196" height="160" as="geometry" />
        </mxCell>
        <mxCell id="gMB_zFFxVmB4Xs2BB8ZC-7" value="&lt;h1 style=&quot;border-color: var(--border-color);&quot;&gt;&lt;font face=&quot;Comic Sans MS&quot; color=&quot;#ffffff&quot;&gt;&lt;span style=&quot;caret-color: rgb(255, 255, 255);&quot;&gt;Decentralised Token-based Governance&lt;/span&gt;&lt;/font&gt;&lt;/h1&gt;" style="rounded=1;whiteSpace=wrap;html=1;fillColor=#EEA47FFF;strokeColor=#B85450;strokeWidth=4;" vertex="1" parent="1">
          <mxGeometry x="520" y="380" width="196" height="160" as="geometry" />
        </mxCell>
        <mxCell id="gMB_zFFxVmB4Xs2BB8ZC-8" value="&lt;h1 style=&quot;border-color: var(--border-color);&quot;&gt;&lt;font color=&quot;#ffffff&quot; style=&quot;border-color: var(--border-color);&quot; face=&quot;Comic Sans MS&quot;&gt;Centralised Token-based Governance&lt;/font&gt;&lt;/h1&gt;" style="rounded=1;whiteSpace=wrap;html=1;fillColor=#EEA47FFF;strokeColor=#B85450;strokeWidth=6;" vertex="1" parent="1">
          <mxGeometry x="880" y="380" width="196" height="160" as="geometry" />
        </mxCell>
        <mxCell id="gMB_zFFxVmB4Xs2BB8ZC-13" value="" style="shape=flexArrow;endArrow=classic;html=1;rounded=0;entryX=0;entryY=0.5;entryDx=0;entryDy=0;fillColor=#2E5266FF;strokeColor=#314354;" edge="1" parent="1" target="gMB_zFFxVmB4Xs2BB8ZC-7">
          <mxGeometry width="50" height="50" relative="1" as="geometry">
            <mxPoint x="360" y="459.40999999999997" as="sourcePoint" />
            <mxPoint x="510" y="460" as="targetPoint" />
          </mxGeometry>
        </mxCell>
        <mxCell id="gMB_zFFxVmB4Xs2BB8ZC-15" value="" style="shape=flexArrow;endArrow=classic;html=1;rounded=0;entryX=0;entryY=0.5;entryDx=0;entryDy=0;fillColor=#2E5266FF;strokeColor=#314354;" edge="1" parent="1" target="gMB_zFFxVmB4Xs2BB8ZC-8">
          <mxGeometry width="50" height="50" relative="1" as="geometry">
            <mxPoint x="716" y="459.82" as="sourcePoint" />
            <mxPoint x="876" y="459.41" as="targetPoint" />
          </mxGeometry>
        </mxCell>
        <mxCell id="gMB_zFFxVmB4Xs2BB8ZC-25" value="" style="endArrow=none;html=1;rounded=0;entryX=1;entryY=0.75;entryDx=0;entryDy=0;exitX=1;exitY=0;exitDx=0;exitDy=0;strokeWidth=4;strokeColor=#314354;" edge="1" parent="1" source="gMB_zFFxVmB4Xs2BB8ZC-12" target="gMB_zFFxVmB4Xs2BB8ZC-11">
          <mxGeometry width="50" height="50" relative="1" as="geometry">
            <mxPoint x="1120" y="410" as="sourcePoint" />
            <mxPoint x="1170" y="360" as="targetPoint" />
          </mxGeometry>
        </mxCell>
        <mxCell id="gMB_zFFxVmB4Xs2BB8ZC-26" value="" style="endArrow=none;html=1;rounded=0;entryX=0;entryY=0.75;entryDx=0;entryDy=0;exitX=0;exitY=0;exitDx=0;exitDy=0;strokeWidth=4;strokeColor=#314354;" edge="1" parent="1" source="gMB_zFFxVmB4Xs2BB8ZC-12" target="gMB_zFFxVmB4Xs2BB8ZC-11">
          <mxGeometry width="50" height="50" relative="1" as="geometry">
            <mxPoint x="80" y="430" as="sourcePoint" />
            <mxPoint x="130" y="380" as="targetPoint" />
          </mxGeometry>
        </mxCell>
      </root>
    </mxGraphModel>
  </diagram>
</mxfile>
